<?xml version="1.0" encoding="utf-8"?>
<!-- Generator: Adobe Illustrator 25.3.1, SVG Export Plug-In . SVG Version: 6.00 Build 0)  -->
<svg version="1.1" id="Layer_1" xmlns="http://www.w3.org/2000/svg" xmlns:xlink="http://www.w3.org/1999/xlink" x="0px" y="0px"
	 viewBox="0 0 63.6 65.1" style="enable-background:new 0 0 63.6 65.1;" xml:space="preserve">
<style type="text/css">
	.st0{fill:#34495E;}
</style>
<g id="Layer_2_1_">
	<g id="Layer_1-2">
		<g id="Layer_2-2">
			<g id="Layer_1-2-2">
				<path class="st0" d="M42.2,56.3v-5.2c0-2-0.8-3.9-2.3-5.3c-1-0.9-1.1-2.4-0.2-3.5c0.5-0.5,1.1-0.8,1.8-0.8
					c2.5-0.2,5-0.8,7.4-1.7c5-1.8,8.6-6.3,9.2-11.6c0.4-2.2,0.4-4.4,0.1-6.6c-0.4-2.7-1.7-5.2-3.7-7c-0.6-0.6-0.8-1.5-0.4-2.3
					c0.6-1.5,0.9-3,0.9-4.6c-0.1-0.8-0.3-1.6-0.6-2.4c-0.2-0.7-0.7-0.3-1-0.2c-2.4,0.7-4.7,1.8-6.7,3.2c-0.9,0.7-2.2,0.9-3.3,0.5
					c-6.2-1.7-12.7-1.7-18.9,0C23.3,9.2,22,9,21,8.2c-2.1-1.5-4.5-2.6-7-3.2c-0.7-0.2-1-0.1-1.2,0.7c-0.4,1.8-0.4,3.8,0.1,5.6
					c0.6,1.5,0.2,3.2-0.9,4.3c-2.8,3.2-3.9,7.5-3,11.6c0.3,1.3,0.6,2.7,1,4c1.7,5.6,5.9,8.2,11.2,9.5c1.5,0.3,3,0.5,4.5,0.8
					c1,0.1,1.8,0.7,2.2,1.6c0.4,0.9,0.2,1.9-0.5,2.5c-1.3,1.4-1.9,3.3-1.9,5.2c0.1,3.8,0,7.7,0,11.5c0.2,1.4-0.8,2.6-2.1,2.8
					c0,0,0,0-0.1,0c-0.3,0-0.7,0-1-0.1c-1.2-0.2-2-1.2-2-2.4v-3.1c0-0.7-0.2-0.9-0.9-0.9c-2.3,0.1-4.5-0.2-6.6-1.1
					c-3-1.3-5.5-3.2-6.8-6.4c-0.6-1.6-2-2.9-3.7-3.3c-0.2-0.1-0.3-0.1-0.5-0.2c-1.3-0.4-2-1.7-1.7-3v-0.2c0.4-1.3,1.8-2,3.1-1.5
					c0,0,0.1,0,0.1,0h0.1c3.3,1.1,5.9,3.4,7.4,6.5c0.7,1.7,2.1,3.1,3.9,3.7c1.5,0.5,3.1,0.7,4.7,0.7c0.6,0,0.9-0.2,0.9-0.8
					c0-2.2-0.2-4.4,0.7-6.5c0.2-0.6-0.2-0.6-0.6-0.7c-1.5-0.4-3-0.9-4.5-1.4c-0.9-0.3-1.7-0.7-2.5-1.1c-5.6-3.1-8.5-8-9.3-14.2
					c-0.5-3.7-0.7-7.4,0.7-11C5.3,16.6,6,15.2,7,13.9c0.6-0.7,0.8-1.6,0.6-2.5c-0.5-3-0.2-6.1,0.8-9c0.3-1.1,1.3-1.9,2.4-2
					c2-0.2,4,0,5.9,0.7c2.1,0.8,4.1,1.8,6.1,2.9c0.5,0.1,1,0.1,1.5,0c6.3-1.4,12.8-1.4,19.1,0c0.6,0.1,1.1,0,1.6-0.3
					c2.8-1.8,5.8-3,9.1-3.6c3-0.4,4.1,0.3,5,3.2c0.8,2.3,1,4.9,0.5,7.3c-0.3,1.5,0.1,3.1,1.2,4.2c1.5,1.9,2.4,4.2,2.6,6.6
					c0.6,3.8,0.2,7.7-1.1,11.3c-2.4,6.6-7.2,10.7-14,12.5c-2.1,0.6-2.1,0.5-1.6,2.6c0.3,1.1,0.4,2.3,0.4,3.5v10.8c0,1.9-0.9,3-2.4,3
					s-2.5-1.2-2.5-3.1C42.2,62,42.2,56.3,42.2,56.3z"/>
			</g>
		</g>
	</g>
</g>
</svg>
