<?xml version="1.0" encoding="utf-8"?>
<!-- Generator: Adobe Illustrator 25.3.1, SVG Export Plug-In . SVG Version: 6.00 Build 0)  -->
<svg version="1.1" id="Layer_1" xmlns="http://www.w3.org/2000/svg" xmlns:xlink="http://www.w3.org/1999/xlink" x="0px" y="0px"
	 viewBox="0 0 481.6 481.6" style="enable-background:new 0 0 481.6 481.6;" xml:space="preserve">
<style type="text/css">
	.st0{fill:#34495E;}
</style>
<g id="Layer_2_1_">
	<g id="Layer_1-2">
		<path class="st0" d="M67.2,0C30.1,0,0,30.1,0,67.2s30.1,67.2,67.2,67.2s67.2-30.1,67.2-67.2C134.3,30.1,104.3,0.1,67.2,0z
			 M67.2,22.4c24.7,0,44.8,20.1,44.8,44.8S91.9,112,67.2,112S22.4,91.9,22.4,67.2l0,0c-0.1-24.6,19.8-44.7,44.5-44.8
			C67,22.4,67.1,22.4,67.2,22.4z M358.4,145.6c-35.8,0-60.1,15.2-78.4,32.7V168c-0.2-6.1-5.1-11-11.2-11.2h-89.6
			c-6.1,0.2-11,5.1-11.2,11.2v302.4c0.2,6.1,5.1,11,11.2,11.2h95.2c6.1-0.2,11-5.1,11.2-11.2v-168c0-14.2,4.5-27.6,11-36.8
			s14.5-13.6,22.6-13.6h11.2c8.1,0,16,4.5,22.6,13.6s11,22.6,11,36.8v168c0.2,6.1,5.1,11,11.2,11.2h95.2c6.1-0.2,11-5.1,11.2-11.2
			v-61.6c0-6.2-5-11.2-11.2-11.2s-11.2,5-11.2,11.2c0,0,0,0,0,0v50.4h-72.8V302.4c0-18.7-5.6-36.3-15.2-49.7s-24-23.1-40.8-23.1
			h-11.2c-16.7,0-31.1,9.7-40.8,23.1s-15.2,31-15.2,49.7v67.2h-6.6c-6.2,0.3-11,5.5-10.7,11.7s5.5,11,11.7,10.7h5.6v22.4h-6.6
			c-6.2,0.3-11,5.5-10.7,11.7c0.3,6.2,5.5,11,11.7,10.7l0,0h5.6v22.4h-72.8v-280h67.2v28c0,6.2,5,11.2,11.2,11.2
			c3.4,0,6.6-1.5,8.8-4.2c18.8-23.4,38.8-46.2,80.9-46.2c40.2,0,64.1,10.3,79.1,27.8s21.7,44.1,21.7,78.6V364
			c0,6.2,5,11.2,11.2,11.2s11.2-5,11.2-11.2c0,0,0,0,0,0v-89.6c0-37.3-7-69.8-27-93.1S402.6,145.6,358.4,145.6L358.4,145.6z
			 M21.4,156.8c-5.7,0.7-10,5.5-10.2,11.2v302.4c0.2,6.1,5.1,11,11.2,11.2h95.2c6.1-0.2,11-5.1,11.2-11.2V168
			c-0.2-6.1-5.1-11-11.2-11.2H21.4z M33.6,179.2h72.8v190.4h-6.7c-6.2,0.3-11,5.5-10.7,11.7c0.3,6.2,5.5,11,11.7,10.7h5.6v22.4h-6.6
			c-6.2,0.3-11,5.5-10.7,11.7c0.3,6.2,5.5,11,11.7,10.7h5.6v22.4H33.6V179.2z"/>
	</g>
</g>
</svg>
